<svg 
 xmlns="http://www.w3.org/2000/svg"
 xmlns:xlink="http://www.w3.org/1999/xlink"
 width="40px" height="40px">
<path
 d="M39.000,21.000 L21.000,21.000 L21.000,39.000 C21.000,39.552 20.552,40.000 20.000,40.000 C19.448,40.000 19.000,39.552 19.000,39.000 L19.000,21.000 L1.000,21.000 C0.448,21.000 -0.000,20.552 -0.000,20.000 C-0.000,19.448 0.448,19.000 1.000,19.000 L19.000,19.000 L19.000,1.000 C19.000,0.448 19.448,-0.000 20.000,-0.000 C20.552,-0.000 21.000,0.448 21.000,1.000 L21.000,19.000 L39.000,19.000 C39.552,19.000 40.000,19.448 40.000,20.000 C40.000,20.552 39.552,21.000 39.000,21.000 Z"/>
</svg>
