<svg 
 xmlns="http://www.w3.org/2000/svg"
 xmlns:xlink="http://www.w3.org/1999/xlink"
 width="44px" height="42px">
<path fill-rule="evenodd"  fill="rgb(20, 22, 92)"
 d="M9.528,17.485 L9.528,11.987 L9.304,12.163 L9.297,12.168 C8.572,12.644 7.644,12.479 7.144,11.803 C6.660,11.148 6.819,10.248 7.481,9.698 L7.506,9.678 L20.324,0.555 C21.352,-0.177 22.722,-0.184 23.705,0.536 L23.731,0.555 L36.541,9.673 L36.559,9.685 C37.252,10.157 37.406,11.085 36.940,11.762 L36.925,11.782 L36.910,11.803 C36.427,12.457 35.485,12.637 34.812,12.205 L34.785,12.188 L34.776,12.185 L34.764,12.180 L34.751,12.174 C34.710,12.153 34.675,12.122 34.651,12.083 L34.645,12.072 L34.643,12.069 L34.472,11.934 L34.472,17.485 L39.712,17.485 C41.296,17.485 42.601,18.741 42.653,20.290 L42.654,20.337 L42.654,20.384 L42.654,38.972 L42.660,38.973 C43.408,39.067 43.976,39.673 44.000,40.432 L44.000,40.455 L44.000,40.480 C44.000,41.322 43.333,41.987 42.483,42.000 L1.543,42.000 C0.680,42.000 -0.000,41.330 -0.000,40.480 C-0.000,39.706 0.564,39.081 1.317,38.976 L1.340,38.973 L1.346,38.972 L1.346,20.384 C1.346,18.824 2.620,17.538 4.193,17.487 L4.240,17.486 L4.289,17.485 L9.528,17.485 ZM24.441,33.941 L19.398,33.941 L19.398,38.907 L24.441,38.907 L24.441,33.941 ZM9.528,20.526 L4.486,20.526 L4.486,38.907 L9.528,38.907 L9.528,20.526 ZM21.946,3.073 L12.615,9.720 C12.640,16.083 12.642,19.307 12.620,19.391 L12.615,38.907 L16.312,38.907 L16.312,33.269 C16.312,31.853 17.586,30.868 19.205,30.848 L19.255,30.848 L24.692,30.848 C26.283,30.848 27.608,31.832 27.634,33.227 L27.635,33.269 L27.635,38.907 L31.385,38.907 L31.385,9.849 L21.946,3.073 ZM34.472,20.526 L34.472,38.907 L39.514,38.907 L39.514,20.526 L34.472,20.526 ZM21.946,12.130 C25.070,12.130 27.581,14.603 27.581,17.680 C27.581,20.722 25.052,23.230 21.946,23.230 C18.822,23.230 16.312,20.757 16.312,17.680 C16.312,14.603 18.822,12.130 21.946,12.130 L21.946,12.130 ZM21.946,15.117 C20.548,15.117 19.398,16.250 19.398,17.627 C19.398,19.004 20.548,20.137 21.946,20.137 C23.345,20.137 24.494,19.004 24.494,17.627 C24.494,16.250 23.345,15.117 21.946,15.117 L21.946,15.117 Z"/>
</svg>
