<svg 
 xmlns="http://www.w3.org/2000/svg"
 xmlns:xlink="http://www.w3.org/1999/xlink"
 width="20px" height="14px">
<path fill-rule="evenodd"  fill="rgb(242, 84, 73)"
 d="M14.986,14.000 C11.769,14.000 10.590,10.450 9.541,7.320 C8.492,4.190 7.653,2.000 5.994,2.000 C3.187,2.000 1.998,8.440 1.998,11.000 C1.998,11.552 1.551,12.000 0.999,12.000 C0.447,12.000 0.000,11.552 -0.000,11.000 C-0.000,8.820 1.069,0.000 5.994,0.000 C9.211,0.000 10.390,3.550 11.439,6.680 C12.488,9.810 13.327,12.000 14.986,12.000 C16.644,12.000 17.783,8.890 17.983,7.800 C18.091,7.248 18.625,6.888 19.177,6.995 C19.729,7.103 20.089,7.638 19.981,8.190 C19.911,8.430 18.762,14.000 14.986,14.000 L14.986,14.000 Z"/>
</svg>
