<svg 
 xmlns="http://www.w3.org/2000/svg"
 xmlns:xlink="http://www.w3.org/1999/xlink"
 width="42px" height="46px">
<path fill-rule="evenodd"  fill="rgb(20, 22, 92)"
 d="M39.572,46.000 L2.428,46.000 C1.087,46.000 -0.000,44.886 -0.000,43.513 L-0.000,27.162 C-0.000,25.788 1.087,24.674 2.428,24.674 L3.146,24.674 L3.146,2.471 C3.146,1.108 4.229,-0.001 5.559,-0.001 L31.337,-0.001 C32.668,-0.001 33.750,1.108 33.750,2.471 L33.750,5.607 L37.822,5.607 C39.152,5.607 40.235,6.716 40.235,8.079 L40.235,24.772 C41.252,25.062 42.000,26.027 42.000,27.162 L42.000,43.513 C42.000,44.886 40.913,46.000 39.572,46.000 ZM30.108,3.731 L6.788,3.731 L6.788,24.674 L15.135,24.674 C16.142,24.674 16.956,25.508 16.956,26.540 L16.956,30.478 L25.049,30.478 L25.049,26.540 C25.049,25.508 25.864,24.674 26.871,24.674 L30.108,24.674 L30.108,3.731 ZM36.593,9.338 L33.750,9.338 L33.750,24.674 L36.593,24.674 L36.593,9.338 ZM38.363,28.405 L28.692,28.405 L28.692,31.722 C28.692,33.096 27.604,34.210 26.263,34.210 L15.742,34.210 C14.401,34.210 13.314,33.096 13.314,31.722 L13.314,28.405 L3.642,28.405 L3.642,42.274 L38.358,42.274 L38.363,42.274 L38.363,28.405 ZM10.784,19.927 C9.778,19.927 8.964,19.092 8.964,18.061 C8.964,17.029 9.778,16.195 10.784,16.195 L26.112,16.195 C27.118,16.195 27.933,17.029 27.933,18.061 C27.933,19.092 27.118,19.927 26.112,19.927 L10.784,19.927 ZM26.112,12.080 L10.784,12.080 C9.778,12.080 8.964,11.246 8.964,10.214 C8.964,9.183 9.778,8.348 10.784,8.348 L26.112,8.348 C27.118,8.348 27.933,9.183 27.933,10.214 C27.933,11.246 27.118,12.080 26.112,12.080 Z"/>
</svg>
