<svg 
 xmlns="http://www.w3.org/2000/svg"
 xmlns:xlink="http://www.w3.org/1999/xlink"
 width="40px" height="46px">
<path fill-rule="evenodd"  fill="rgb(20, 22, 92)"
 d="M20.000,46.000 C16.974,46.000 12.375,45.757 8.540,45.073 C6.282,44.670 4.472,44.148 3.160,43.520 C1.718,42.830 -0.000,41.561 -0.000,39.438 C-0.000,37.719 0.832,34.705 3.177,31.861 C4.970,29.687 8.240,26.936 13.775,25.834 C10.984,23.461 8.112,19.264 8.112,12.041 C8.112,8.774 9.304,5.746 11.466,3.516 C13.664,1.249 16.696,-0.000 20.000,-0.000 C23.305,-0.000 26.336,1.249 28.535,3.516 C30.698,5.746 31.888,8.774 31.888,12.041 C31.888,15.394 31.220,18.408 29.903,20.999 C28.969,22.848 27.683,24.488 26.118,25.825 C31.701,26.966 34.995,29.712 36.796,31.870 C37.833,33.111 38.679,34.523 39.242,35.950 C39.731,37.191 40.001,38.429 40.001,39.438 C40.001,41.561 38.282,42.830 36.840,43.520 C35.528,44.148 33.719,44.670 31.460,45.073 C27.626,45.757 23.025,46.000 20.000,46.000 L20.000,46.000 ZM3.941,39.307 C4.168,39.549 5.356,40.532 10.154,41.271 C13.560,41.797 17.473,41.983 20.000,41.983 C22.527,41.983 26.441,41.797 29.846,41.271 C34.645,40.532 35.833,39.549 36.059,39.307 C36.006,38.344 35.384,36.373 33.799,34.474 C32.333,32.719 29.552,30.454 24.621,29.629 C22.965,29.351 22.092,27.320 21.863,26.283 C21.472,24.526 22.359,23.677 22.758,23.393 C25.128,21.711 27.951,18.374 27.951,12.041 C27.951,9.838 27.165,7.815 25.736,6.341 C24.282,4.842 22.246,4.017 20.000,4.017 C17.756,4.017 15.718,4.842 14.264,6.341 C12.837,7.815 12.050,9.839 12.050,12.041 C12.050,17.194 13.745,21.004 17.091,23.364 C17.509,23.658 18.433,24.545 18.011,26.416 C17.944,26.712 17.302,29.323 15.322,29.635 C10.417,30.408 7.649,32.678 6.190,34.446 C4.612,36.360 3.994,38.341 3.941,39.307 L3.941,39.307 ZM25.259,25.665 L25.271,25.666 L25.259,25.665 Z"/>
</svg>
