<svg
 xmlns="http://www.w3.org/2000/svg"
 xmlns:xlink="http://www.w3.org/1999/xlink"
 width="20px" height="24px">
<path fill-rule="evenodd"
 d="M19.470,3.265 C19.126,2.803 18.640,2.463 18.084,2.299 L10.802,0.113 C10.329,-0.027 9.826,-0.038 9.348,0.082 L2.031,1.938 C0.837,2.242 0.001,3.307 0.000,4.529 L0.000,14.279 C-0.003,14.802 0.152,15.314 0.445,15.749 C1.543,17.375 2.818,18.876 4.245,20.227 C5.586,21.495 7.055,22.621 8.629,23.590 C9.499,24.131 10.602,24.137 11.478,23.606 C13.062,22.655 14.540,21.539 15.884,20.276 C17.254,18.986 18.478,17.552 19.533,15.998 C19.837,15.553 19.999,15.029 20.000,14.492 L20.000,4.859 C20.003,4.285 19.817,3.725 19.470,3.265 L19.470,3.265 ZM8.682,5.752 C8.704,5.051 9.284,4.495 9.992,4.495 C10.699,4.495 11.279,5.051 11.302,5.752 L11.302,13.173 C11.317,13.646 11.070,14.090 10.659,14.331 C10.247,14.572 9.736,14.572 9.325,14.331 C8.913,14.090 8.667,13.646 8.682,13.173 L8.682,5.752 ZM10.000,18.551 C9.233,18.551 8.611,17.935 8.611,17.175 C8.611,16.415 9.233,15.799 10.000,15.799 C10.767,15.799 11.389,16.415 11.389,17.175 C11.388,17.935 10.767,18.550 10.000,18.551 L10.000,18.551 Z"/>
</svg>
