<svg
 xmlns="http://www.w3.org/2000/svg"
 xmlns:xlink="http://www.w3.org/1999/xlink"
 width="24px" height="20px">
<path fill-rule="evenodd"
 d="M22.870,20.000 L1.130,20.000 C0.505,20.000 0.000,19.459 0.000,18.796 L0.000,1.204 C0.000,0.539 0.508,-0.000 1.130,-0.000 L22.867,-0.000 C23.490,-0.000 23.998,0.539 24.000,1.202 L24.000,18.796 C24.000,19.462 23.492,20.000 22.870,20.000 ZM21.386,2.783 L2.612,2.783 L2.612,17.215 L21.386,17.215 L21.386,2.783 ZM5.565,5.263 L18.433,5.263 C18.779,5.263 19.058,5.560 19.058,5.929 L19.058,14.068 C19.058,14.437 18.779,14.734 18.433,14.734 L5.565,14.734 C5.221,14.734 4.938,14.434 4.940,14.068 L4.940,5.929 C4.940,5.560 5.219,5.263 5.565,5.263 Z"/>
</svg>
