<svg
 xmlns="http://www.w3.org/2000/svg"
 xmlns:xlink="http://www.w3.org/1999/xlink"
 width="24px" height="24px">
<path fill-rule="evenodd"
 d="M21.300,24.000 L7.800,24.000 C6.300,24.000 5.100,22.800 5.100,21.300 L5.100,7.800 C5.100,6.300 6.300,5.100 7.800,5.100 L21.150,5.100 C22.650,5.100 23.850,6.300 24.000,7.800 L24.000,21.300 C24.000,22.800 22.800,24.000 21.300,24.000 ZM19.433,9.503 L12.774,16.168 L9.659,13.050 L7.939,14.769 L12.773,19.607 L21.151,11.222 L19.433,9.503 ZM16.950,3.300 C16.950,2.400 16.350,1.800 15.450,1.800 L3.300,1.800 C2.400,1.800 1.800,2.400 1.800,3.300 L1.800,15.450 C1.800,16.200 2.400,16.950 3.300,17.100 L3.450,17.100 L3.450,18.900 L2.700,18.900 C1.200,18.900 -0.000,17.700 -0.000,16.200 L-0.000,2.700 C-0.000,1.200 1.200,-0.000 2.700,-0.000 L16.050,-0.000 C17.550,-0.000 18.750,1.200 18.750,2.700 L18.750,3.450 L16.950,3.450 L16.950,3.300 Z"/>
</svg>
