<svg
 xmlns="http://www.w3.org/2000/svg"
 xmlns:xlink="http://www.w3.org/1999/xlink"
 width="24px" height="22px">
<path fill-rule="evenodd"
 d="M20.143,10.352 C20.143,10.065 20.000,9.921 19.714,9.921 L18.000,9.921 C17.715,9.921 17.572,10.065 17.572,10.352 L17.572,11.172 C14.948,11.814 13.000,14.179 13.000,17.000 C13.000,19.087 14.067,20.925 15.684,22.000 L0.429,22.000 C0.143,22.000 -0.000,21.856 -0.000,21.569 L-0.000,21.136 C-0.000,20.849 0.143,20.705 0.429,20.705 L1.286,20.705 L1.286,1.725 C1.286,0.773 2.053,-0.000 3.000,-0.000 L13.286,-0.000 C13.740,-0.000 14.176,0.182 14.498,0.505 C14.819,0.829 15.000,1.268 15.000,1.725 L15.000,5.607 L21.000,5.607 C21.947,5.607 22.714,6.380 22.714,7.333 L22.714,12.290 C21.977,11.708 21.101,11.295 20.143,11.110 L20.143,10.352 ZM7.286,3.882 C7.286,3.595 7.143,3.451 6.857,3.451 L4.286,3.451 C4.000,3.451 3.857,3.595 3.857,3.882 L3.857,6.470 C3.857,6.758 4.000,6.902 4.286,6.902 L6.857,6.902 C7.143,6.902 7.286,6.758 7.286,6.470 L7.286,3.882 ZM7.286,9.059 C7.286,8.771 7.143,8.627 6.857,8.627 L4.286,8.627 C4.000,8.627 3.857,8.771 3.857,9.059 L3.857,11.647 C3.857,11.935 4.000,12.078 4.286,12.078 L6.857,12.078 C7.143,12.078 7.286,11.935 7.286,11.647 L7.286,9.059 ZM7.286,14.235 C7.286,13.947 7.143,13.803 6.857,13.803 L4.286,13.803 C4.000,13.803 3.857,13.947 3.857,14.235 L3.857,16.825 C3.857,17.112 4.000,17.256 4.286,17.256 L6.857,17.256 C7.143,17.256 7.286,17.112 7.286,16.825 L7.286,14.235 ZM12.428,3.882 C12.428,3.595 12.286,3.451 12.000,3.451 L9.428,3.451 C9.143,3.451 9.000,3.595 9.000,3.882 L9.000,6.470 C9.000,6.758 9.143,6.902 9.428,6.902 L12.000,6.902 C12.286,6.902 12.428,6.758 12.428,6.470 L12.428,3.882 ZM12.428,9.059 C12.428,8.771 12.286,8.627 12.000,8.627 L9.428,8.627 C9.143,8.627 9.000,8.771 9.000,9.059 L9.000,11.647 C9.000,11.935 9.143,12.078 9.428,12.078 L12.000,12.078 C12.286,12.078 12.428,11.935 12.428,11.647 L12.428,9.059 ZM12.428,14.235 C12.428,13.947 12.286,13.803 12.000,13.803 L9.428,13.803 C9.143,13.803 9.000,13.947 9.000,14.235 L9.000,16.825 C9.000,17.112 9.143,17.256 9.428,17.256 L12.000,17.256 C12.286,17.256 12.428,17.112 12.428,16.825 L12.428,14.235 ZM14.000,17.000 C14.000,14.239 16.239,12.000 19.000,12.000 C21.761,12.000 24.000,14.239 24.000,17.000 C24.000,19.761 21.761,22.000 19.000,22.000 C16.239,22.000 14.000,19.761 14.000,17.000 ZM19.000,20.333 C20.841,20.333 22.333,18.841 22.333,17.000 C22.333,16.382 22.165,15.803 21.872,15.307 L17.307,19.872 C17.803,20.165 18.382,20.333 19.000,20.333 ZM16.128,18.693 L20.693,14.128 C20.197,13.835 19.618,13.667 19.000,13.667 C17.159,13.667 15.667,15.159 15.667,17.000 C15.667,17.618 15.835,18.197 16.128,18.693 Z"/>
</svg>
