<svg
 xmlns="http://www.w3.org/2000/svg"
 xmlns:xlink="http://www.w3.org/1999/xlink"
 width="24px" height="24px">
<path fill-rule="evenodd"
 d="M24.000,7.571 C24.000,9.522 22.745,11.160 21.009,11.762 L21.009,22.698 C21.009,23.055 20.865,23.383 20.637,23.617 C20.409,23.852 20.095,24.000 19.746,24.000 C19.048,24.000 18.480,23.411 18.480,22.696 L18.480,11.869 C16.566,11.378 15.145,9.649 15.145,7.571 C15.145,5.494 16.566,3.765 18.480,3.274 L18.480,1.304 C18.480,0.948 18.624,0.620 18.851,0.386 C19.082,0.148 19.400,0.003 19.743,-0.000 C20.440,-0.000 21.009,0.588 21.009,1.304 L21.009,3.381 C22.745,3.982 24.000,5.621 24.000,7.571 ZM19.573,5.066 C18.196,5.066 17.080,6.191 17.080,7.571 C17.080,8.952 18.199,10.077 19.573,10.077 C20.946,10.077 22.065,8.952 22.065,7.571 C22.065,6.191 20.946,5.066 19.573,5.066 ZM16.427,16.434 C16.427,18.444 15.094,20.122 13.274,20.675 L13.274,22.696 C13.274,23.052 13.131,23.380 12.903,23.614 C12.675,23.849 12.360,23.997 12.011,23.997 C11.314,23.997 10.746,23.409 10.746,22.693 L10.746,20.681 C8.915,20.135 7.573,18.451 7.573,16.434 C7.573,14.416 8.915,12.733 10.746,12.186 L10.746,1.304 C10.746,0.948 10.889,0.620 11.117,0.386 C11.348,0.148 11.665,0.003 12.009,-0.000 C12.706,-0.000 13.274,0.588 13.274,1.304 L13.274,12.192 C15.094,12.745 16.427,14.423 16.427,16.434 ZM12.000,13.928 C10.624,13.928 9.507,15.053 9.507,16.434 C9.507,17.814 10.627,18.939 12.000,18.939 C13.374,18.939 14.493,17.814 14.493,16.434 C14.493,15.053 13.374,13.928 12.000,13.928 ZM5.540,11.863 L5.540,22.696 C5.540,23.052 5.396,23.380 5.168,23.614 C4.941,23.849 4.626,23.997 4.277,23.997 C3.579,23.997 3.011,23.409 3.011,22.693 L3.011,11.768 C1.265,11.172 0.000,9.529 0.000,7.571 C0.000,5.614 1.265,3.971 3.011,3.375 L3.011,1.304 C3.011,0.948 3.155,0.620 3.382,0.386 C3.613,0.148 3.931,0.003 4.274,-0.000 C4.972,-0.000 5.540,0.588 5.540,1.304 L5.540,3.280 C7.444,3.778 8.855,5.501 8.855,7.571 C8.855,9.641 7.444,11.365 5.540,11.863 ZM4.427,5.066 C3.051,5.066 1.935,6.191 1.935,7.571 C1.935,8.952 3.054,10.077 4.427,10.077 C5.801,10.077 6.920,8.952 6.920,7.571 C6.920,6.191 5.801,5.066 4.427,5.066 Z"/>
</svg>
