<svg
 xmlns="http://www.w3.org/2000/svg"
 xmlns:xlink="http://www.w3.org/1999/xlink"
 width="22px" height="24px">
<path fill-rule="evenodd"
 d="M17.600,1.333 L17.600,2.667 C17.600,4.088 16.374,5.259 14.813,5.330 L14.667,5.333 L7.333,5.333 C5.770,5.333 4.482,4.219 4.404,2.800 L4.400,2.667 L4.400,1.333 L2.933,1.333 C1.313,1.333 -0.000,2.527 -0.000,4.000 L-0.000,21.333 C-0.000,22.041 0.309,22.719 0.859,23.219 C1.409,23.719 2.155,24.000 2.933,24.000 L19.067,24.000 C19.844,24.000 20.591,23.719 21.141,23.219 C21.691,22.719 22.000,22.041 22.000,21.333 L22.000,4.000 C22.000,2.527 20.687,1.333 19.067,1.333 L17.600,1.333 ZM4.033,12.667 L17.966,12.667 C18.574,12.667 19.067,13.114 19.067,13.667 C19.067,14.219 18.574,14.667 17.966,14.667 L4.033,14.667 C3.426,14.667 2.933,14.219 2.933,13.667 C2.933,13.114 3.426,12.667 4.033,12.667 L4.033,12.667 ZM4.033,8.667 L10.633,8.667 C11.241,8.667 11.733,9.115 11.733,9.667 C11.733,10.219 11.241,10.667 10.633,10.667 L4.033,10.667 C3.426,10.667 2.933,10.219 2.933,9.667 C2.933,9.115 3.426,8.667 4.033,8.667 L4.033,8.667 ZM7.700,0.000 C6.734,-0.000 5.934,0.681 5.870,1.557 L5.867,1.667 L5.867,2.333 C5.866,3.212 6.616,3.939 7.580,3.997 L7.700,4.000 L14.300,4.000 C15.266,4.000 16.066,3.319 16.130,2.443 L16.133,2.333 L16.133,1.667 C16.133,0.789 15.384,0.061 14.420,0.003 L14.300,0.000 L7.700,0.000 Z"/>
</svg>
