<svg
 xmlns="http://www.w3.org/2000/svg"
 xmlns:xlink="http://www.w3.org/1999/xlink"
 width="22px" height="24px">
<path fill-rule="evenodd"
 d="M4.411,20.898 L1.288,24.000 L-0.000,24.000 L-0.000,1.399 C-0.000,0.599 0.645,-0.000 1.388,-0.000 L20.662,-0.000 C21.405,-0.000 22.000,0.599 22.000,1.350 L22.000,24.000 L20.712,24.000 L17.640,20.898 L14.517,24.000 L14.120,24.000 L11.000,20.898 L7.877,24.000 L7.480,24.000 L4.411,20.898 ZM4.411,7.249 L4.360,7.249 L4.360,8.050 C4.360,8.450 4.656,8.750 5.053,8.750 L16.897,8.750 C17.293,8.750 17.590,8.450 17.590,8.050 L17.590,7.249 C17.590,6.849 17.293,6.549 16.897,6.549 L5.103,6.549 C4.707,6.549 4.411,6.849 4.411,7.249 L4.411,7.249 ZM4.411,13.799 L4.360,13.799 L4.360,14.599 C4.360,15.000 4.656,15.299 5.053,15.299 L16.897,15.299 C17.293,15.299 17.590,15.000 17.590,14.599 L17.590,13.799 C17.590,13.398 17.293,13.099 16.897,13.099 L5.103,13.099 C4.707,13.099 4.411,13.398 4.411,13.799 L4.411,13.799 Z"/>
</svg>
