<svg
 xmlns="http://www.w3.org/2000/svg"
 xmlns:xlink="http://www.w3.org/1999/xlink"
 width="24px" height="22px">
<path fill-rule="evenodd"
 d="M23.571,20.705 L22.714,20.705 L22.714,7.333 C22.714,6.380 21.947,5.607 21.000,5.607 L15.000,5.607 L15.000,1.725 C15.000,1.268 14.819,0.829 14.498,0.505 C14.176,0.182 13.740,-0.000 13.286,-0.000 L3.000,-0.000 C2.053,-0.000 1.286,0.773 1.286,1.725 L1.286,20.705 L0.429,20.705 C0.143,20.705 -0.000,20.849 -0.000,21.136 L-0.000,21.569 C-0.000,21.856 0.143,22.000 0.429,22.000 L23.571,22.000 C23.857,22.000 24.000,21.856 24.000,21.569 L24.000,21.137 C24.000,20.849 23.857,20.705 23.571,20.705 L23.571,20.705 ZM17.572,10.352 C17.572,10.065 17.715,9.921 18.000,9.921 L19.714,9.921 C20.000,9.921 20.143,10.065 20.143,10.352 L20.143,12.078 C20.143,12.365 20.000,12.509 19.714,12.509 L18.000,12.509 C17.715,12.509 17.572,12.365 17.572,12.078 L17.572,10.352 ZM17.572,14.666 C17.572,14.379 17.715,14.235 18.000,14.235 L19.714,14.235 C20.000,14.235 20.143,14.379 20.143,14.666 L20.143,16.392 C20.143,16.679 20.000,16.823 19.714,16.823 L18.000,16.823 C17.715,16.823 17.572,16.679 17.572,16.392 L17.572,14.666 ZM9.000,3.882 C9.000,3.595 9.143,3.451 9.428,3.451 L12.000,3.451 C12.286,3.451 12.428,3.595 12.428,3.882 L12.428,6.470 C12.428,6.758 12.286,6.902 12.000,6.902 L9.428,6.902 C9.143,6.902 9.000,6.758 9.000,6.470 L9.000,3.882 ZM9.000,9.059 C9.000,8.771 9.143,8.627 9.428,8.627 L12.000,8.627 C12.286,8.627 12.428,8.771 12.428,9.059 L12.428,11.647 C12.428,11.935 12.286,12.078 12.000,12.078 L9.428,12.078 C9.143,12.078 9.000,11.935 9.000,11.647 L9.000,9.059 ZM9.000,14.235 C9.000,13.947 9.143,13.803 9.428,13.803 L12.000,13.803 C12.286,13.803 12.428,13.947 12.428,14.235 L12.428,16.825 C12.428,17.112 12.286,17.256 12.000,17.256 L9.428,17.256 C9.143,17.256 9.000,17.112 9.000,16.825 L9.000,14.235 ZM3.857,3.882 C3.857,3.595 4.000,3.451 4.286,3.451 L6.857,3.451 C7.143,3.451 7.286,3.595 7.286,3.882 L7.286,6.470 C7.286,6.758 7.143,6.902 6.857,6.902 L4.286,6.902 C4.000,6.902 3.857,6.758 3.857,6.470 L3.857,3.882 ZM3.857,9.059 C3.857,8.771 4.000,8.627 4.286,8.627 L6.857,8.627 C7.143,8.627 7.286,8.771 7.286,9.059 L7.286,11.647 C7.286,11.935 7.143,12.078 6.857,12.078 L4.286,12.078 C4.000,12.078 3.857,11.935 3.857,11.647 L3.857,9.059 ZM3.857,14.235 C3.857,13.947 4.000,13.803 4.286,13.803 L6.857,13.803 C7.143,13.803 7.286,13.947 7.286,14.235 L7.286,16.825 C7.286,17.112 7.143,17.256 6.857,17.256 L4.286,17.256 C4.000,17.256 3.857,17.112 3.857,16.825 L3.857,14.235 Z"/>
</svg>
