<svg
 xmlns="http://www.w3.org/2000/svg"
 xmlns:xlink="http://www.w3.org/1999/xlink"
 width="24px" height="24px">
<path fill-rule="evenodd"
 d="M13.289,0.413 L22.552,7.039 C23.461,7.690 24.000,8.737 24.000,9.852 L24.000,20.538 C24.000,22.450 22.445,24.000 20.527,24.000 L15.790,24.000 L15.790,18.005 C15.790,15.919 14.093,14.227 12.000,14.227 C9.907,14.227 8.211,15.919 8.211,18.005 L8.211,24.000 L3.474,24.000 C1.555,24.000 -0.000,22.450 -0.000,20.538 L-0.000,9.852 C-0.000,8.737 0.539,7.690 1.448,7.039 L10.711,0.413 C11.481,-0.138 12.519,-0.138 13.289,0.413 L13.289,0.413 Z"/>
</svg>
