<svg
 xmlns="http://www.w3.org/2000/svg"
 xmlns:xlink="http://www.w3.org/1999/xlink"
 width="24px" height="22px">
<path fill-rule="evenodd"
 d="M21.048,-0.000 L2.947,-0.000 C1.322,-0.000 0.000,1.294 0.000,2.883 L0.000,15.302 C0.000,16.894 1.322,18.185 2.950,18.185 L12.155,18.185 L17.606,21.823 C17.782,21.940 17.989,22.000 18.192,22.000 C18.360,22.000 18.526,21.960 18.681,21.880 C19.023,21.703 19.237,21.355 19.237,20.976 L19.237,18.185 L21.050,18.185 C22.675,18.185 24.000,16.891 24.000,15.302 L24.000,2.883 C23.995,1.294 22.673,-0.000 21.048,-0.000 L21.048,-0.000 ZM5.736,11.255 C4.587,11.255 3.650,10.333 3.650,9.209 C3.650,8.084 4.590,7.163 5.736,7.163 C6.883,7.163 7.823,8.084 7.823,9.209 C7.823,10.333 6.885,11.255 5.736,11.255 L5.736,11.255 ZM11.997,11.255 C10.849,11.255 9.911,10.333 9.911,9.209 C9.911,8.084 10.851,7.163 11.997,7.163 C13.144,7.163 14.084,8.084 14.084,9.209 C14.084,10.333 13.146,11.255 11.997,11.255 L11.997,11.255 ZM18.259,11.255 C17.110,11.255 16.172,10.333 16.172,9.209 C16.172,8.084 17.112,7.163 18.259,7.163 C19.407,7.163 20.345,8.084 20.345,9.209 C20.345,10.333 19.405,11.255 18.259,11.255 L18.259,11.255 Z"/>
</svg>
