<svg 
 xmlns="http://www.w3.org/2000/svg"
 xmlns:xlink="http://www.w3.org/1999/xlink"
 width="44px" height="40px">
<path fill-rule="evenodd"  fill="rgb(255, 255, 255)"
 d="M43.214,37.645 L41.643,37.645 L41.643,13.332 C41.643,11.600 40.236,10.195 38.500,10.195 L27.500,10.195 L27.500,3.137 C27.500,2.305 27.169,1.507 26.580,0.919 C25.990,0.330 25.191,-0.000 24.357,-0.000 L5.500,-0.000 C3.764,-0.000 2.357,1.405 2.357,3.137 L2.357,37.645 L0.786,37.645 C0.262,37.645 -0.000,37.907 -0.000,38.429 L-0.000,39.216 C-0.000,39.739 0.262,40.000 0.786,40.000 L43.214,40.000 C43.738,40.000 44.000,39.739 44.000,39.216 L44.000,38.431 C44.000,37.907 43.738,37.645 43.214,37.645 L43.214,37.645 ZM32.215,18.823 C32.215,18.300 32.477,18.038 33.001,18.038 L36.143,18.038 C36.667,18.038 36.929,18.300 36.929,18.823 L36.929,21.960 C36.929,22.483 36.667,22.744 36.143,22.744 L33.001,22.744 C32.477,22.744 32.215,22.483 32.215,21.960 L32.215,18.823 ZM32.215,26.666 C32.215,26.143 32.477,25.881 33.001,25.881 L36.143,25.881 C36.667,25.881 36.929,26.143 36.929,26.666 L36.929,29.803 C36.929,30.326 36.667,30.587 36.143,30.587 L33.001,30.587 C32.477,30.587 32.215,30.326 32.215,29.803 L32.215,26.666 ZM16.500,7.059 C16.500,6.536 16.762,6.275 17.286,6.275 L22.000,6.275 C22.524,6.275 22.786,6.536 22.786,7.059 L22.786,11.765 C22.786,12.288 22.524,12.549 22.000,12.549 L17.286,12.549 C16.762,12.549 16.500,12.288 16.500,11.765 L16.500,7.059 ZM16.500,16.471 C16.500,15.948 16.762,15.686 17.286,15.686 L22.000,15.686 C22.524,15.686 22.786,15.948 22.786,16.471 L22.786,21.177 C22.786,21.699 22.524,21.961 22.000,21.961 L17.286,21.961 C16.762,21.961 16.500,21.699 16.500,21.177 L16.500,16.471 ZM16.500,25.881 C16.500,25.358 16.762,25.097 17.286,25.097 L22.000,25.097 C22.524,25.097 22.786,25.358 22.786,25.881 L22.786,30.590 C22.786,31.113 22.524,31.375 22.000,31.375 L17.286,31.375 C16.762,31.375 16.500,31.113 16.500,30.590 L16.500,25.881 ZM7.072,7.059 C7.072,6.536 7.334,6.275 7.857,6.275 L12.572,6.275 C13.096,6.275 13.358,6.536 13.358,7.059 L13.358,11.765 C13.358,12.288 13.096,12.549 12.572,12.549 L7.857,12.549 C7.334,12.549 7.072,12.288 7.072,11.765 L7.072,7.059 ZM7.072,16.471 C7.072,15.948 7.334,15.686 7.857,15.686 L12.572,15.686 C13.096,15.686 13.358,15.948 13.358,16.471 L13.358,21.177 C13.358,21.699 13.096,21.961 12.572,21.961 L7.857,21.961 C7.334,21.961 7.072,21.699 7.072,21.177 L7.072,16.471 ZM7.072,25.881 C7.072,25.358 7.334,25.097 7.857,25.097 L12.572,25.097 C13.096,25.097 13.358,25.358 13.358,25.881 L13.358,30.590 C13.358,31.113 13.096,31.375 12.572,31.375 L7.857,31.375 C7.334,31.375 7.072,31.113 7.072,30.590 L7.072,25.881 Z"/>
</svg>
