<svg 
 xmlns="http://www.w3.org/2000/svg"
 xmlns:xlink="http://www.w3.org/1999/xlink"
 width="20px" height="20px">
<path fill-rule="evenodd"  fill="rgb(204, 204, 204)"
 d="M10.000,0.000 C4.471,0.000 0.000,4.471 0.000,10.000 C0.000,15.529 4.471,20.000 10.000,20.000 C15.529,20.000 20.000,15.529 20.000,10.000 C20.000,4.471 15.529,0.000 10.000,0.000 L10.000,0.000 ZM11.429,14.286 C11.429,15.071 10.786,15.714 10.000,15.714 C9.214,15.714 8.571,15.071 8.571,14.286 L8.571,10.000 C8.571,9.214 9.214,8.571 10.000,8.571 C10.786,8.571 11.429,9.214 11.429,10.000 L11.429,14.286 ZM10.000,7.143 C9.214,7.143 8.571,6.500 8.571,5.714 C8.571,4.929 9.214,4.286 10.000,4.286 C10.786,4.286 11.429,4.929 11.429,5.714 C11.429,6.500 10.786,7.143 10.000,7.143 L10.000,7.143 Z"/>
</svg>
