<svg 
 xmlns="http://www.w3.org/2000/svg"
 xmlns:xlink="http://www.w3.org/1999/xlink"
 width="42px" height="42px">
<path fill-rule="evenodd"  fill="rgb(255, 255, 255)"
 d="M36.750,42.000 L10.500,42.000 C4.701,42.000 -0.000,37.178 -0.000,31.231 L-0.000,16.692 C-0.000,13.718 2.351,11.308 5.250,11.308 L36.750,11.308 C39.649,11.308 42.000,13.718 42.000,16.692 L42.000,36.615 C42.000,39.589 39.649,42.000 36.750,42.000 ZM32.025,19.923 C29.415,19.923 27.300,22.093 27.300,24.769 C27.300,27.446 29.415,29.615 32.025,29.615 C34.635,29.615 36.750,27.446 36.750,24.769 C36.750,22.093 34.635,19.923 32.025,19.923 ZM26.963,5.923 L2.962,5.923 C1.326,5.923 -0.000,4.597 -0.000,2.962 C-0.000,1.326 1.326,-0.000 2.962,-0.000 L26.963,-0.000 C28.599,-0.000 29.925,1.326 29.925,2.962 C29.925,4.597 28.599,5.923 26.963,5.923 Z"/>
</svg>
