<svg 
 xmlns="http://www.w3.org/2000/svg"
 xmlns:xlink="http://www.w3.org/1999/xlink"
 width="44px" height="40px">
<path fill-rule="evenodd"  fill="rgb(255, 255, 255)"
 d="M30.800,-0.000 L34.571,-0.000 C37.071,-0.000 39.469,0.983 41.238,2.733 C43.006,4.483 43.999,6.856 43.999,9.331 L43.999,30.669 C43.999,33.143 43.006,35.517 41.238,37.267 C39.469,39.017 37.071,40.000 34.571,40.000 L9.429,40.000 C6.928,40.000 4.530,39.017 2.762,37.267 C0.994,35.517 0.001,33.143 0.001,30.669 L0.001,9.331 C0.001,6.856 0.994,4.483 2.762,2.733 C4.530,0.983 6.928,-0.000 9.429,-0.000 L13.200,-0.000 L13.200,2.903 C13.200,3.705 13.857,4.355 14.667,4.355 C15.477,4.355 16.134,3.705 16.134,2.903 L16.134,-0.000 L27.866,-0.000 L27.866,2.903 C27.866,3.705 28.523,4.355 29.333,4.355 C30.143,4.355 30.800,3.705 30.800,2.903 L30.800,-0.000 ZM22.000,26.127 L22.000,21.047 C22.000,19.844 21.015,18.869 19.800,18.869 C18.585,18.869 17.600,19.844 17.600,21.047 L17.600,28.305 C17.600,29.507 18.585,30.482 19.800,30.482 L27.134,30.482 C28.349,30.482 29.333,29.507 29.333,28.305 C29.333,27.102 28.349,26.127 27.134,26.127 L22.000,26.127 ZM1.467,10.160 C0.657,10.160 0.000,10.810 0.000,11.612 C0.000,12.414 0.657,13.064 1.467,13.064 L42.533,13.064 C43.343,13.064 44.000,12.414 44.000,11.612 C44.000,10.810 43.343,10.160 42.533,10.160 L1.467,10.160 Z"/>
</svg>
